<svg version="1.1" xmlns="http://www.w3.org/2000/svg" viewBox="0 0 256 256">
<path d="M0 0 C1.85 -0.01 3.71 -0.02 5.56 -0.03 C10.57 -0.05 15.59 -0.05 20.6 -0.04 C24.79 -0.03 28.99 -0.04 33.18 -0.05 C43.08 -0.06 52.98 -0.06 62.89 -0.04 C73.08 -0.03 83.27 -0.04 93.46 -0.07 C102.23 -0.1 111 -0.11 119.78 -0.1 C125 -0.09 130.23 -0.1 135.46 -0.12 C140.38 -0.14 145.3 -0.13 150.22 -0.11 C152.02 -0.1 153.82 -0.1 155.62 -0.12 C164.9 -0.18 172.62 0.1 181.18 4.16 C188.67 8.39 193.72 13.46 198.79 20.4 C202.05 26.01 204.36 30.88 204.99 37.44 C205.19 42.27 205.17 47.09 205.15 51.92 C205.15 53.77 205.16 55.63 205.17 57.48 C205.2 62.49 205.19 67.51 205.18 72.52 C205.18 76.71 205.19 80.91 205.19 85.1 C205.21 95 205.21 104.9 205.19 114.81 C205.17 125 205.19 135.19 205.22 145.38 C205.25 154.15 205.26 162.92 205.25 171.69 C205.24 176.92 205.24 182.15 205.26 187.38 C205.28 192.3 205.28 197.22 205.25 202.14 C205.25 203.94 205.25 205.74 205.26 207.54 C205.32 216.78 205.06 224.51 201.05 233.05 C196.75 240.51 191.56 246.07 184.5 250.96 C183.55 251.48 182.59 252 181.61 252.53 C181.01 252.87 180.41 253.2 179.79 253.54 C171.27 257.61 162.44 257.1 153.23 257.07 C151.37 257.07 149.52 257.08 147.67 257.09 C142.65 257.12 137.64 257.11 132.63 257.1 C128.43 257.1 124.24 257.11 120.04 257.11 C110.14 257.13 100.24 257.13 90.34 257.11 C80.15 257.09 69.96 257.11 59.77 257.14 C51 257.17 42.22 257.18 33.45 257.17 C28.22 257.16 22.99 257.16 17.76 257.18 C12.84 257.2 7.92 257.2 3 257.17 C1.21 257.17 -0.59 257.17 -2.39 257.18 C-11.67 257.24 -19.39 256.97 -27.95 252.91 C-35.44 248.67 -40.5 243.6 -45.56 236.67 C-48.82 231.06 -51.13 226.18 -51.76 219.62 C-51.96 214.8 -51.94 209.97 -51.92 205.15 C-51.93 203.29 -51.94 201.44 -51.95 199.59 C-51.97 194.57 -51.97 189.56 -51.96 184.55 C-51.95 180.35 -51.96 176.16 -51.97 171.96 C-51.98 162.06 -51.98 152.16 -51.96 142.26 C-51.95 132.07 -51.96 121.88 -51.99 111.69 C-52.02 102.91 -52.03 94.14 -52.02 85.37 C-52.01 80.14 -52.02 74.91 -52.04 69.68 C-52.06 64.76 -52.05 59.84 -52.02 54.92 C-52.02 53.13 -52.02 51.33 -52.04 49.53 C-52.1 40.29 -51.83 32.56 -47.82 24.02 C-43.52 16.55 -38.33 11 -31.27 6.1 C-30.32 5.59 -29.37 5.07 -28.39 4.53 C-27.78 4.2 -27.18 3.87 -26.56 3.52 C-18.04 -0.55 -9.21 -0.04 0 0 Z " fill="#FEFEFE" transform="translate(51.38623046875,-0.533447265625)"></path>
<path d="M0 0 C30.36 0 60.72 0 92 0 C92 9.9 92 19.8 92 30 C89.29 35.13 86.58 40.25 83.88 45.38 C83.47 46.14 83.07 46.91 82.65 47.69 C78.39 55.75 74.13 63.79 69.79 71.8 C69.47 72.39 69.15 72.99 68.82 73.6 C67.33 76.36 65.83 79.11 64.33 81.86 C63.8 82.84 63.27 83.82 62.72 84.82 C62.27 85.66 61.81 86.5 61.34 87.36 C59.75 90.5 58.39 93.76 57 97 C68.88 97 80.76 97 93 97 C93 106.57 93 116.14 93 126 C62.31 126 31.62 126 0 126 C0 116.43 0 106.86 0 97 C8.91 96.67 17.82 96.34 27 96 C28.9 92.47 30.8 88.95 32.75 85.31 C38.99 73.77 45.45 62.37 52 51 C55.96 44.07 59.92 37.14 64 30 C42.88 30 21.76 30 0 30 C0 20.1 0 10.2 0 0 Z " fill="#2A58FF" transform="translate(104,63)"></path>
<path d="M0 0 C11.88 0 23.76 0 36 0 C36 38.61 36 77.22 36 117 C24.12 117 12.24 117 0 117 C0 78.39 0 39.78 0 0 Z " fill="#020202" transform="translate(60,68)"></path>
</svg>
